<?xml version="1.0" encoding="UTF-8"?>
<svg xmlns="http://www.w3.org/2000/svg" xmlns:xlink="http://www.w3.org/1999/xlink" width="65pt" height="65pt" viewBox="0 0 65 65" version="1.1">
<g id="surface1">
<path style=" stroke:none;fill-rule:nonzero;fill:rgb(46.27451%,29.019608%,73.72549%);fill-opacity:1;" d="M 45.320312 45.015625 C 40.71875 54.421875 32.667969 60.75 22.007812 62.824219 C 20.378906 63.230469 18.703125 63.421875 17.015625 63.410156 C 10.890625 63.410156 5.265625 60.855469 2.539062 56.667969 C -1.125 51.09375 -2.371094 39.277344 9.710938 30.535156 C 9.953125 31.867188 10.453125 33.699219 10.78125 34.777344 C 8.417969 36.542969 6.472656 38.816406 5.109375 41.441406 C 2.859375 45.851562 3.109375 50.261719 5.777344 54.34375 C 7.613281 57.089844 10.523438 58.757812 14.269531 59.273438 C 18.949219 59.863281 23.699219 58.964844 27.835938 56.71875 C 34.332031 53.304688 38.65625 49.226562 41.492188 43.648438 C 40.6875 42.824219 40.21875 41.734375 40.160156 40.585938 C 40.066406 38.015625 42.074219 35.859375 44.640625 35.765625 L 44.8125 35.765625 C 47.304688 35.753906 49.371094 37.699219 49.507812 40.1875 C 49.644531 42.675781 47.808594 44.828125 45.328125 45.089844 Z M 59.964844 34.695312 C 66.203125 41.773438 66.371094 50.089844 63.957031 54.921875 C 61.710938 59.335938 55.785156 63.746094 47.816406 63.746094 C 44.097656 63.667969 40.433594 62.789062 37.082031 61.164062 C 38.253906 60.332031 39.914062 58.996094 40.828125 58.167969 C 43.410156 59.289062 46.1875 59.878906 49.003906 59.914062 C 54.167969 59.914062 58.078125 57.5 60.40625 53.09375 C 61.902344 50.179688 61.992188 46.769531 60.574219 43.273438 C 58.835938 38.878906 55.746094 35.148438 51.75 32.621094 C 46.507812 29.085938 40.324219 27.195312 34 27.207031 L 32.503906 27.203125 C 31.789062 28.855469 30.207031 29.953125 28.410156 30.042969 L 28.253906 30.042969 C 25.730469 30.011719 23.691406 27.976562 23.652344 25.449219 C 23.609375 22.925781 25.578125 20.824219 28.101562 20.710938 L 28.269531 20.710938 C 29.996094 20.714844 31.574219 21.679688 32.355469 23.210938 L 33.691406 23.210938 C 44.320312 23.210938 53.648438 27.285156 59.964844 34.695312 Z M 17.683594 46.449219 C 17.597656 45.601562 17.800781 44.746094 18.265625 44.035156 C 13.609375 35.957031 11.117188 25.722656 14.941406 15.074219 C 17.683594 7.070312 24.589844 1.652344 32.082031 1.652344 C 40.074219 1.652344 48.398438 8.652344 49.394531 22.125 C 48.148438 21.714844 46.324219 21.109375 45.238281 20.878906 C 44.960938 16.472656 41.234375 5.484375 32.414062 5.648438 C 29.25 5.742188 24.589844 7.238281 22.191406 10.308594 C 19.230469 13.984375 17.507812 18.503906 17.273438 23.210938 C 16.707031 29.671875 18.222656 36.144531 21.597656 41.691406 C 21.78125 41.621094 21.980469 41.59375 22.175781 41.609375 L 22.347656 41.609375 C 24.921875 41.5625 27.039062 43.605469 27.085938 46.179688 C 27.132812 48.753906 25.089844 50.878906 22.515625 50.925781 L 22.347656 50.925781 C 19.84375 50.917969 17.785156 48.9375 17.683594 46.433594 Z M 17.683594 46.449219 "/>
</g>
</svg>
