<?xml version="1.0" encoding="UTF-8"?>
<svg xmlns="http://www.w3.org/2000/svg" xmlns:xlink="http://www.w3.org/1999/xlink" width="65pt" height="65pt" viewBox="0 0 65 65" version="1.1">
<g id="surface1">
<path style=" stroke:none;fill-rule:nonzero;fill:rgb(46.27451%,29.019608%,73.72549%);fill-opacity:1;" d="M 45.179688 44.878906 C 40.59375 54.253906 32.566406 60.5625 21.941406 62.632812 C 20.316406 63.035156 18.644531 63.226562 16.964844 63.214844 C 10.855469 63.214844 5.25 60.667969 2.53125 56.492188 C -1.121094 50.9375 -2.363281 39.15625 9.679688 30.441406 C 9.921875 31.769531 10.421875 33.59375 10.75 34.671875 C 8.390625 36.429688 6.453125 38.695312 5.09375 41.3125 C 2.851562 45.710938 3.101562 50.105469 5.757812 54.175781 C 7.589844 56.914062 10.492188 58.578125 14.226562 59.089844 C 18.890625 59.679688 23.625 58.785156 27.75 56.542969 C 34.226562 53.140625 38.539062 49.074219 41.363281 43.515625 C 40.5625 42.691406 40.09375 41.605469 40.035156 40.460938 C 39.941406 37.898438 41.945312 35.75 44.503906 35.65625 L 44.675781 35.65625 C 47.160156 35.644531 49.21875 37.582031 49.355469 40.0625 C 49.492188 42.542969 47.660156 44.691406 45.1875 44.949219 Z M 59.78125 34.589844 C 66 41.644531 66.167969 49.9375 63.761719 54.753906 C 61.519531 59.152344 55.613281 63.550781 47.667969 63.550781 C 43.960938 63.472656 40.308594 62.597656 36.96875 60.976562 C 38.136719 60.144531 39.792969 58.816406 40.703125 57.988281 C 43.277344 59.105469 46.046875 59.695312 48.851562 59.730469 C 54 59.730469 57.898438 57.324219 60.21875 52.929688 C 61.710938 50.023438 61.800781 46.625 60.386719 43.140625 C 58.65625 38.757812 55.574219 35.039062 51.589844 32.519531 C 46.363281 28.996094 40.199219 27.113281 33.894531 27.125 L 32.402344 27.121094 C 31.691406 28.765625 30.113281 29.859375 28.324219 29.949219 L 28.167969 29.949219 C 25.652344 29.917969 23.617188 27.890625 23.578125 25.371094 C 23.535156 22.855469 25.5 20.761719 28.015625 20.648438 L 28.183594 20.648438 C 29.902344 20.652344 31.476562 21.613281 32.257812 23.140625 L 33.585938 23.140625 C 44.183594 23.140625 53.484375 27.203125 59.78125 34.589844 Z M 17.628906 46.304688 C 17.542969 45.460938 17.746094 44.609375 18.210938 43.898438 C 13.566406 35.847656 11.082031 25.644531 14.894531 15.027344 C 17.628906 7.046875 24.515625 1.648438 31.984375 1.648438 C 39.949219 1.648438 48.25 8.625 49.242188 22.058594 C 48 21.648438 46.183594 21.042969 45.097656 20.816406 C 44.824219 16.421875 41.109375 5.46875 32.3125 5.632812 C 29.160156 5.722656 24.515625 7.214844 22.125 10.277344 C 19.171875 13.941406 17.453125 18.445312 17.21875 23.140625 C 16.65625 29.582031 18.167969 36.035156 21.53125 41.5625 C 21.714844 41.492188 21.914062 41.464844 22.109375 41.480469 L 22.277344 41.480469 C 24.84375 41.433594 26.957031 43.472656 27.003906 46.039062 C 27.050781 48.605469 25.011719 50.722656 22.445312 50.769531 L 22.277344 50.769531 C 19.78125 50.761719 17.730469 48.785156 17.628906 46.289062 Z M 17.628906 46.304688 "/>
</g>
</svg>
